# xmcd CD database file
#
# Track frame offsets:
#	150
#	21510
#	41872
#	56876
#	69702
#	87364
#	99201
#	118596
#	139650
#	158214
#	174261
#	192351
#	220252
#
# Disc length: 3221 seconds
#
# Revision: 0
# Processed by: cddbd v1.5.1PL2 Copyright (c) Steve Scherf et al.
# Submitted via: Feurio! 1.68 - http://www.feurio.com
#
DISCID=bb0c930d
DTITLE=Roberta Flack - The Best of
DYEAR=1900
DGENRE=Blues
TTITLE0=Killing Me Softley
TTITLE1=The Closer I Get To You
TTITLE2=You Got A Friend
TTITLE3=Feel Like Makin' Love
TTITLE4=Will You Still Love Me Tomorrow
TTITLE5=Where Is The Love
TTITLE6=The First Time Ever I Saw Your Face
TTITLE7=Back Together Again
TTITLE8=You Are My Heaven
TTITLE9=If Ever I See You Again
TTITLE10=Jesse
TTITLE11=Just Like A Woman
TTITLE12=Killing Me Softly With His Song
EXTD=
EXTT0=
EXTT1=
EXTT2=
EXTT3=
EXTT4=
EXTT5=
EXTT6=
EXTT7=
EXTT8=
EXTT9=
EXTT10=
EXTT11=
EXTT12=
PLAYORDER=
